<?xml version="1.0" standalone="no"?>
<!DOCTYPE svg PUBLIC "-//W3C//DTD SVG 20010904//EN"
 "http://www.w3.org/TR/2001/REC-SVG-20010904/DTD/svg10.dtd">
<svg version="1.0" xmlns="http://www.w3.org/2000/svg"
 width="500.000000pt" height="500.000000pt" viewBox="0 0 500.000000 500.000000"
 preserveAspectRatio="xMidYMid meet">
<metadata>
Created by potrace 1.14, written by Peter Selinger 2001-2017
</metadata>
<g transform="translate(0.000000,500.000000) scale(0.100000,-0.100000)"
fill="#000000" stroke="none">
<path d="M0 2500 l0 -2500 2500 0 2500 0 0 2500 0 2500 -2500 0 -2500 0 0
-2500z m3160 1080 l0 -170 365 0 365 0 0 -55 0 -55 -365 0 -365 0 0 -524 c0
-559 5 -627 50 -716 32 -63 85 -115 139 -139 111 -47 293 -48 443 -1 34 10 65
17 68 14 3 -3 10 -28 16 -55 l11 -49 -77 -24 c-198 -63 -403 -56 -550 19 -95
48 -181 174 -210 305 -9 38 -14 232 -17 618 l-5 562 -204 0 -205 0 3 23 c2 15
79 85 238 219 198 166 240 197 268 198 l32 0 0 -170z m-2308 -672 c4 -499 5
-515 27 -588 61 -203 185 -335 375 -402 70 -24 96 -28 191 -28 186 0 301 42
426 158 77 72 128 148 167 254 l27 73 5 520 5 520 65 0 65 0 0 -825 c0 -933 2
-902 -79 -1075 -113 -238 -323 -375 -645 -419 -146 -21 -208 -20 -369 4 -108
16 -335 70 -363 86 -9 5 21 124 31 124 4 0 32 -9 63 -19 30 -11 111 -32 179
-48 110 -25 141 -27 293 -27 149 1 182 4 267 27 251 67 410 217 468 443 16 63
20 111 20 266 0 103 -3 188 -7 188 -5 0 -21 -23 -36 -50 -40 -71 -150 -179
-232 -228 -39 -22 -106 -53 -150 -68 -70 -24 -96 -28 -205 -28 -176 -1 -287
31 -420 119 -123 82 -224 233 -272 410 -21 77 -22 101 -26 589 -2 280 -1 515
2 522 4 10 24 14 65 14 l60 0 3 -512z"/>
</g>
</svg>
